<svg width="40" height="40" viewBox="0 0 40 40" fill="none" xmlns="http://www.w3.org/2000/svg">
<path d="M31.6667 3.33337H8.33334C5.57668 3.33337 3.33334 5.57671 3.33334 8.33337V13.0517C3.33334 14.8067 3.97001 16.4017 5.00001 17.6284V33.3334C5.00001 33.7754 5.1756 34.1993 5.48817 34.5119C5.80073 34.8244 6.22465 35 6.66668 35H20C20.442 35 20.866 34.8244 21.1785 34.5119C21.4911 34.1993 21.6667 33.7754 21.6667 33.3334V25H28.3333V33.3334C28.3333 33.7754 28.5089 34.1993 28.8215 34.5119C29.1341 34.8244 29.558 35 30 35H33.3333C33.7754 35 34.1993 34.8244 34.5119 34.5119C34.8244 34.1993 35 33.7754 35 33.3334V17.6267C36.03 16.4017 36.6667 14.8067 36.6667 13.05V8.33337C36.6667 5.57671 34.4233 3.33337 31.6667 3.33337ZM33.3333 8.33337V13.0517C33.3333 14.9517 31.9183 16.5717 30.1817 16.6634L30 16.6667C28.1617 16.6667 26.6667 15.1717 26.6667 13.3334V6.66671H31.6667C32.5867 6.66671 33.3333 7.41504 33.3333 8.33337ZM16.6667 13.3334V6.66671H23.3333V13.3334C23.3333 15.1717 21.8383 16.6667 20 16.6667C18.1617 16.6667 16.6667 15.1717 16.6667 13.3334ZM6.66668 8.33337C6.66668 7.41504 7.41334 6.66671 8.33334 6.66671H13.3333V13.3334C13.3333 15.1717 11.8383 16.6667 10 16.6667L9.81834 16.6617C8.08168 16.5717 6.66668 14.9517 6.66668 13.0517V8.33337ZM16.6667 26.6667H10V21.6667H16.6667V26.6667Z" fill="url(#paint0_linear_604_8542)"/>
<defs>
<linearGradient id="paint0_linear_604_8542" x1="20" y1="3.33337" x2="20" y2="35" gradientUnits="userSpaceOnUse">
<stop stop-color="#EA9769"/>
<stop offset="1" stop-color="#EA6969"/>
</linearGradient>
</defs>
</svg>
