<?xml version="1.0" encoding="iso-8859-1"?>
<!-- Uploaded to: SVG Repo, www.svgrepo.com, Generator: SVG Repo Mixer Tools -->
<svg xmlns="http://www.w3.org/2000/svg" xmlns:xlink="http://www.w3.org/1999/xlink" version="1.1" id="Capa_1"  viewBox="0 0 470 470" xml:space="preserve" width="512" height="512">
<g>
	<path style="fill:#FDA162;" d="M462.5,235c0-16.289-6.501-31.052-17.037-41.864c5.597-14.021,5.953-30.148-0.28-45.197   c-6.233-15.049-17.889-26.201-31.761-32.157c-0.194-15.095-6.037-30.131-17.555-41.649s-26.554-17.361-41.649-17.555   c-5.956-13.872-17.108-25.527-32.157-31.761c-15.049-6.233-31.176-5.877-45.197-0.28C266.052,14.001,251.289,7.5,235,7.5L195,235   l40,227.5c16.289,0,31.052-6.501,41.864-17.037c14.021,5.597,30.148,5.953,45.197-0.28c15.049-6.233,26.201-17.889,32.157-31.761   c15.095-0.194,30.131-6.037,41.649-17.555s17.361-26.554,17.555-41.649c13.872-5.956,25.527-17.108,31.761-32.157   c6.233-15.049,5.877-31.176,0.28-45.197C455.999,266.052,462.5,251.289,462.5,235z"/>
	<path style="fill:#FDCE6E;" d="M193.136,24.537c-14.021-5.597-30.148-5.953-45.197,0.28c-15.049,6.233-26.201,17.889-32.157,31.761   c-15.095,0.194-30.131,6.037-41.649,17.555s-17.361,26.554-17.555,41.649c-13.872,5.956-25.527,17.108-31.761,32.157   s-5.877,31.176-0.28,45.197C14.001,203.948,7.5,218.711,7.5,235s6.501,31.052,17.037,41.864   c-5.597,14.021-5.953,30.148,0.28,45.197s17.889,26.201,31.761,32.157c0.194,15.095,6.037,30.131,17.555,41.649   s26.554,17.361,41.649,17.555c5.956,13.872,17.108,25.527,32.157,31.761c15.049,6.233,31.176,5.877,45.197,0.28   C203.948,455.999,218.711,462.5,235,462.5V7.5C218.711,7.5,203.948,14.001,193.136,24.537z"/>
	<path style="fill:#FD7555;" d="M235,52.5l-70,162.239L235,417.5c100.792,0,182.5-81.708,182.5-182.5S335.792,52.5,235,52.5z"/>
	<path style="fill:#FDA162;" d="M52.5,235c0,100.792,81.708,182.5,182.5,182.5v-365C134.208,52.5,52.5,134.208,52.5,235z"/>
	<path style="fill:#FDCE6E;" d="M236.58,82.51v304.98C319.94,386.64,387.5,318.56,387.5,235S319.94,83.36,236.58,82.51z"/>
	<path style="fill:#FDFA7B;" d="M236.58,82.51c-0.53-0.01-1.05-0.01-1.58-0.01c-84.09,0-152.5,68.41-152.5,152.5   S150.91,387.5,235,387.5c0.53,0,1.05,0,1.58-0.01C303.41,386.43,357.5,318.43,357.5,235S303.41,83.57,236.58,82.51z"/>
	<path style="fill:#FDA162;" d="M292.5,155h-30l30,50h30v-20C322.5,168.5,309,155,292.5,155z"/>
	<path style="fill:#FDCE6E;" d="M262.5,155h-85c-16.5,0-30,13.5-30,30v20h145v-20C292.5,168.5,279,155,262.5,155z"/>
	<path style="fill:#FD7555;" d="M147.5,205v30l145,90c16.5,0,30-13.5,30-30v-90H147.5z"/>
	<path style="fill:#FDA162;" d="M147.5,235v60c0,16.5,13.5,30,30,30h115v-90H147.5z"/>
	<path d="M235,45C130.233,45,45,130.233,45,235s85.233,190,190,190s190-85.233,190-190S339.767,45,235,45z M235,410   c-96.495,0-175-78.505-175-175S138.505,60,235,60s175,78.505,175,175S331.495,410,235,410z"/>
	<path d="M147.5,227.5h-30c-4.143,0-7.5,3.358-7.5,7.5s3.357,7.5,7.5,7.5H140V295c0,20.678,16.822,37.5,37.5,37.5h115   c20.678,0,37.5-16.822,37.5-37.5v-52.5h22.5c4.143,0,7.5-3.358,7.5-7.5s-3.357-7.5-7.5-7.5H330v-15h2.5c4.143,0,7.5-3.358,7.5-7.5   s-3.357-7.5-7.5-7.5H330V185c0-20.678-16.822-37.5-37.5-37.5h-13.255c-3.484-17.096-18.635-30-36.745-30h-15   c-18.11,0-33.261,12.904-36.745,30H177.5c-20.678,0-37.5,16.822-37.5,37.5v12.5h-2.5c-4.143,0-7.5,3.358-7.5,7.5s3.357,7.5,7.5,7.5   H315V295c0,12.407-10.094,22.5-22.5,22.5h-115c-12.406,0-22.5-10.093-22.5-22.5v-60C155,230.858,151.643,227.5,147.5,227.5z    M227.5,132.5h15c9.777,0,18.114,6.271,21.21,15h-57.42C209.386,138.771,217.723,132.5,227.5,132.5z M155,185   c0-12.407,10.094-22.5,22.5-22.5h115c12.406,0,22.5,10.093,22.5,22.5v12.5H155V185z"/>
	<path d="M470,235c0-16.094-5.635-31.391-15.958-43.57c4.878-15.202,4.229-31.491-1.931-46.36   c-6.158-14.869-17.218-26.845-31.416-34.146c-1.313-15.912-8.145-30.712-19.525-42.093s-26.181-18.213-42.093-19.525   c-7.301-14.199-19.277-25.258-34.146-31.417c-8.246-3.416-16.92-5.147-25.781-5.147c-7.015,0-13.917,1.081-20.579,3.217   C266.392,5.634,251.095,0,235,0s-31.392,5.634-43.57,15.958c-6.662-2.137-13.564-3.217-20.579-3.217   c-8.861,0-17.535,1.732-25.781,5.147c-14.869,6.159-26.846,17.218-34.146,31.417C95.011,50.617,80.21,57.45,68.829,68.83   c-11.38,11.38-18.212,26.181-19.524,42.093c-14.198,7.301-25.258,19.278-31.416,34.146c-6.159,14.869-6.808,31.158-1.931,46.36   C5.635,203.609,0,218.906,0,235s5.635,31.391,15.958,43.57c-4.877,15.203-4.229,31.492,1.931,46.36   c6.158,14.869,17.218,26.845,31.416,34.146c1.313,15.912,8.145,30.712,19.525,42.093s26.181,18.213,42.093,19.525   c7.301,14.199,19.277,25.258,34.146,31.417c8.246,3.416,16.92,5.147,25.78,5.147c7.016,0,13.918-1.081,20.58-3.217   C203.608,464.366,218.905,470,235,470s31.392-5.634,43.57-15.958c6.662,2.137,13.564,3.217,20.58,3.217   c8.86,0,17.534-1.732,25.78-5.147c14.869-6.159,26.846-17.218,34.146-31.417c15.912-1.312,30.713-8.145,42.094-19.525   c11.38-11.38,18.212-26.181,19.524-42.093c14.198-7.301,25.258-19.278,31.416-34.146c6.159-14.87,6.809-31.159,1.931-46.36   C464.365,266.391,470,251.094,470,235z M438.497,279.645c5.107,12.792,5.021,26.836-0.243,39.546   c-5.265,12.709-15.134,22.701-27.791,28.136c-2.723,1.169-4.502,3.832-4.54,6.795c-0.178,13.773-5.632,26.715-15.359,36.442   c-9.728,9.727-22.669,15.182-36.442,15.359c-2.963,0.038-5.626,1.817-6.795,4.541c-5.435,12.657-15.427,22.526-28.136,27.791   c-6.417,2.658-13.16,4.006-20.04,4.006c-6.69,0-13.254-1.266-19.507-3.762c-2.754-1.101-5.895-0.475-8.015,1.594   C261.765,449.706,248.756,455,235,455s-26.765-5.294-36.629-14.908c-1.427-1.391-3.315-2.129-5.236-2.129   c-0.935,0-1.878,0.175-2.778,0.535c-6.254,2.496-12.816,3.762-19.507,3.762c-6.881,0-13.623-1.348-20.04-4.006   c-12.709-5.264-22.701-15.134-28.136-27.791c-1.169-2.723-3.832-4.502-6.795-4.541c-13.773-0.177-26.715-5.632-36.442-15.359   c-9.728-9.728-15.182-22.669-15.359-36.442c-0.038-2.963-1.817-5.625-4.54-6.795c-12.657-5.435-22.526-15.427-27.791-28.136   c-5.264-12.708-5.351-26.753-0.243-39.546c1.099-2.752,0.474-5.893-1.595-8.015C20.295,261.764,15,248.756,15,235   s5.295-26.764,14.908-36.629c2.068-2.122,2.693-5.263,1.595-8.015c-5.107-12.793-5.021-26.838,0.243-39.546   c5.265-12.709,15.134-22.701,27.791-28.136c2.723-1.169,4.502-3.832,4.54-6.795c0.178-13.773,5.632-26.715,15.359-36.442   c9.728-9.727,22.669-15.182,36.442-15.359c2.963-0.038,5.626-1.817,6.795-4.541c5.435-12.657,15.427-22.526,28.136-27.791   c6.417-2.658,13.16-4.006,20.041-4.006c6.69,0,13.253,1.266,19.506,3.762c2.75,1.098,5.894,0.474,8.015-1.594   C208.235,20.294,221.243,15,235,15s26.765,5.294,36.629,14.908c2.121,2.067,5.263,2.694,8.015,1.594   c6.253-2.496,12.815-3.762,19.506-3.762c6.881,0,13.624,1.348,20.041,4.006c12.709,5.264,22.701,15.134,28.136,27.791   c1.169,2.723,3.832,4.502,6.795,4.541c13.773,0.177,26.715,5.632,36.442,15.359c9.728,9.728,15.182,22.669,15.359,36.442   c0.038,2.963,1.817,5.625,4.54,6.795c12.657,5.435,22.526,15.427,27.791,28.136c5.264,12.709,5.351,26.754,0.243,39.546   c-1.099,2.752-0.474,5.893,1.595,8.015C449.705,208.236,455,221.244,455,235s-5.295,26.764-14.908,36.629   C438.023,273.751,437.398,276.893,438.497,279.645z"/>
	<path d="M235,75c-88.225,0-160,71.776-160,160c0,36.876,12.904,72.893,36.336,101.417c2.63,3.202,7.356,3.663,10.556,1.035   c3.2-2.629,3.664-7.355,1.034-10.556C101.693,301.048,90,268.413,90,235c0-79.953,65.047-145,145-145s145,65.047,145,145   s-65.047,145-145,145c-33.413,0-66.049-11.693-91.895-32.926c-3.198-2.629-7.925-2.167-10.556,1.034   c-2.63,3.2-2.167,7.927,1.034,10.556C162.105,382.096,198.123,395,235,395c88.225,0,160-71.776,160-160S323.225,75,235,75z"/>
</g>















</svg>