<svg width="20" height="20" viewBox="0 0 20 20" fill="none" xmlns="http://www.w3.org/2000/svg">
<path d="M1.66663 1.66663H3.11663C4.01663 1.66663 4.72496 2.44163 4.64996 3.33329L3.95829 11.6333C3.93129 11.9548 3.97137 12.2785 4.07599 12.5838C4.18061 12.889 4.3475 13.1692 4.56608 13.4066C4.78465 13.644 5.05015 13.8333 5.34575 13.9627C5.64135 14.0921 5.96061 14.1587 6.28329 14.1583H15.1583C16.3583 14.1583 17.4083 13.175 17.5 11.9833L17.95 5.73329C18.05 4.34996 17 3.22496 15.6083 3.22496H4.84996M7.49996 6.66663H17.5M13.5416 18.3333C13.8179 18.3333 14.0828 18.2235 14.2782 18.0282C14.4735 17.8328 14.5833 17.5679 14.5833 17.2916C14.5833 17.0154 14.4735 16.7504 14.2782 16.5551C14.0828 16.3597 13.8179 16.25 13.5416 16.25C13.2654 16.25 13.0004 16.3597 12.8051 16.5551C12.6097 16.7504 12.5 17.0154 12.5 17.2916C12.5 17.5679 12.6097 17.8328 12.8051 18.0282C13.0004 18.2235 13.2654 18.3333 13.5416 18.3333ZM6.87496 18.3333C7.15123 18.3333 7.41618 18.2235 7.61153 18.0282C7.80688 17.8328 7.91663 17.5679 7.91663 17.2916C7.91663 17.0154 7.80688 16.7504 7.61153 16.5551C7.41618 16.3597 7.15123 16.25 6.87496 16.25C6.59869 16.25 6.33374 16.3597 6.13839 16.5551C5.94304 16.7504 5.83329 17.0154 5.83329 17.2916C5.83329 17.5679 5.94304 17.8328 6.13839 18.0282C6.33374 18.2235 6.59869 18.3333 6.87496 18.3333Z" stroke="white" stroke-width="1.5" stroke-miterlimit="10" stroke-linecap="round" stroke-linejoin="round"/>
</svg>
