<svg width="24" height="24" viewBox="0 0 24 24" fill="none" xmlns="http://www.w3.org/2000/svg">
<path d="M13.9511 2.71645L14.1335 2.88645L14.8522 3.6052C15.0991 3.85092 15.4229 4.00242 15.7674 4.03646L15.9161 4.04378H16.9441C18.5479 4.04378 19.8594 5.29795 19.951 6.87883L19.9561 7.05578V8.08278C19.9561 8.43258 20.0768 8.76886 20.2943 9.03624L20.3935 9.14645L21.1123 9.86525C22.2438 10.9917 22.2944 12.7929 21.2577 13.98L21.1225 14.1251L20.3941 14.8535C20.1491 15.099 19.9975 15.4231 19.9635 15.7672L19.9561 15.9158V16.9448C19.9561 18.5485 18.7021 19.8591 17.1211 19.9507L16.9441 19.9558H15.9161C15.5676 19.9558 15.2309 20.0769 14.9634 20.2951L14.8531 20.3945L14.1353 21.1113C13.0101 22.2442 11.2075 22.2944 10.0199 21.2574L9.86581 21.1131L9.14869 20.396C8.9003 20.1494 8.57586 19.9973 8.23235 19.9631L8.08414 19.9558H7.05514C5.452 19.9558 4.14086 18.7023 4.04925 17.1217L4.04414 16.9448V15.9158C4.04414 15.5678 3.92284 15.2308 3.70475 14.9637L3.60544 14.8537L2.88831 14.1356C1.75573 13.0094 1.70549 11.2068 2.74251 10.0204L2.8778 9.87545L3.60393 9.14834C3.85087 8.89963 4.0027 8.57581 4.0368 8.23146L4.04414 8.08278V7.05578L4.04925 6.87885C4.13747 5.35668 5.35663 4.13715 6.87827 4.0489L7.05514 4.04378H8.08414C8.43262 4.04378 8.76939 3.9229 9.03643 3.70572L9.14644 3.60682L9.8646 2.88765C10.991 1.75618 12.7934 1.70636 13.9511 2.71645ZM11.0416 3.84256L10.9268 3.94674L10.2056 4.66899C9.68833 5.18258 9.00421 5.48966 8.28196 5.53727L8.08414 5.54378H7.05514C6.26757 5.54378 5.61985 6.14793 5.55032 6.91821L5.54414 7.05578V8.08278C5.54414 8.81195 5.27953 9.5131 4.80224 10.0612L4.66683 10.2067L3.93966 10.9349C3.38785 11.4892 3.35572 12.3649 3.84337 12.9589L3.94783 13.0738L4.66709 13.7941C5.1815 14.3097 5.48979 14.995 5.5376 15.7178L5.54414 15.9158V16.9448C5.54414 17.7328 6.14784 18.3801 6.91765 18.4496L7.05514 18.4558H8.08414C8.81193 18.4558 9.51368 18.7207 10.0619 19.198L10.2075 19.3335L10.9308 20.0568C11.489 20.6118 12.3649 20.6442 12.9584 20.1565L13.0732 20.0521L13.7941 19.3322C14.3108 18.8179 14.9952 18.5101 15.7181 18.4623L15.9161 18.4558H16.9441C17.7328 18.4558 18.3804 17.8524 18.45 17.0823L18.4561 16.9448V15.9158C18.4561 15.1869 18.7209 14.4839 19.1976 13.9383L19.3328 13.7935L20.0603 13.066C20.6121 12.511 20.6441 11.6358 20.1571 11.0419L20.0528 10.9271L19.3309 10.2052C18.817 9.68765 18.5102 9.00422 18.4626 8.28094L18.4561 8.08278V7.05578C18.4561 6.26737 17.8521 5.61951 17.0817 5.54996L16.9441 5.54378H15.9161C15.187 5.54378 14.4849 5.27939 13.938 4.80243L13.7928 4.66711L13.1049 3.97734L13.065 3.94031C12.5107 3.38855 11.6349 3.35624 11.0416 3.84256ZM15.0965 14.0424C15.1665 14.1124 15.2265 14.1924 15.2665 14.2824C15.2965 14.3724 15.3165 14.4724 15.3165 14.5724C15.3165 14.6734 15.2965 14.7624 15.2665 14.8524C15.2265 14.9424 15.1665 15.0324 15.0965 15.1024C14.9565 15.2424 14.7665 15.3224 14.5665 15.3224C14.3665 15.3224 14.1765 15.2424 14.0365 15.1024C13.9665 15.0324 13.9165 14.9424 13.8765 14.8524C13.8365 14.7624 13.8165 14.6734 13.8165 14.5724C13.8165 14.4724 13.8365 14.3724 13.8765 14.2824C13.9165 14.1924 13.9665 14.1124 14.0365 14.0424C14.3165 13.7624 14.8165 13.7624 15.0965 14.0424ZM15.1002 8.89915C15.3664 9.16542 15.3906 9.58208 15.1728 9.87569L15.1002 9.95981L9.96017 15.0998C9.66727 15.3927 9.1924 15.3927 8.89951 15.0998C8.63324 14.8335 8.60903 14.4169 8.82689 14.1233L8.89951 14.0392L14.0395 8.89915C14.3324 8.60626 14.8073 8.60626 15.1002 8.89915ZM9.95644 8.90278C10.0964 9.04178 10.1764 9.23278 10.1764 9.43278C10.1764 9.53278 10.1664 9.62178 10.1264 9.71278C10.0864 9.80278 10.0264 9.88278 9.95644 9.96278C9.88644 10.0328 9.80643 10.0818 9.71643 10.1218C9.62643 10.1618 9.52643 10.1828 9.42643 10.1828C9.32643 10.1828 9.23643 10.1618 9.14643 10.1218C9.05643 10.0818 8.96643 10.0328 8.89643 9.96278C8.82643 9.88278 8.77643 9.80278 8.73643 9.71278C8.69643 9.62178 8.67643 9.53278 8.67643 9.43278C8.67643 9.33178 8.69643 9.23278 8.73643 9.14278C8.77643 9.05278 8.82643 8.96278 8.89643 8.90278C9.18643 8.62178 9.67644 8.62178 9.95644 8.90278Z" fill="#EA736D"/>
</svg>
