<svg width="24" height="24" viewBox="0 0 24 24" fill="none" xmlns="http://www.w3.org/2000/svg">
<path d="M9.59131 14.4563L9.91109 14.4576C14.5555 14.4981 17.1833 15.4361 17.1833 17.9983C17.1833 20.5061 14.6648 21.4736 10.2234 21.5546L9.59131 21.5603C4.74697 21.5603 2.00031 20.6394 2.00031 18.0183C2.00031 15.3937 4.7579 14.4563 9.59131 14.4563ZM9.59131 15.9563C5.57395 15.9563 3.50031 16.6612 3.50031 18.0183C3.50031 19.3667 5.56898 20.0603 9.59131 20.0603C13.6089 20.0603 15.6833 19.3552 15.6833 17.9983C15.6833 16.6505 13.6127 15.9563 9.59131 15.9563ZM17.587 13.7481C18.1676 13.7876 18.7448 13.8708 19.2994 13.9938C20.4875 14.2301 21.3708 14.6713 21.7755 15.5204C22.0743 16.1491 22.0743 16.8806 21.7755 17.5092C21.3731 18.3563 20.499 18.7942 19.3042 19.04C18.8985 19.1234 18.5019 18.8622 18.4185 18.4565C18.335 18.0507 18.5963 17.6542 19.002 17.5707C19.7708 17.4126 20.2826 17.1562 20.4207 16.8654C20.5259 16.6441 20.5259 16.3856 20.4211 16.165C20.282 15.8732 19.7676 15.6163 18.991 15.4616C18.4936 15.3515 17.9908 15.279 17.4852 15.2446C17.072 15.2165 16.7597 14.8587 16.7878 14.4455C16.8159 14.0322 17.1737 13.72 17.587 13.7481ZM9.59131 2.49976C12.4393 2.49976 14.7263 4.78636 14.7263 7.63376C14.7263 10.482 12.4395 12.7688 9.59131 12.7688C6.74323 12.7688 4.45731 10.4821 4.45731 7.63376C4.45731 4.78622 6.74341 2.49976 9.59131 2.49976ZM16.02 3.56936C18.2549 3.56936 20.067 5.38183 20.067 7.61636C20.067 9.85157 18.2552 11.6634 16.02 11.6634C15.6058 11.6634 15.27 11.3276 15.27 10.9134C15.27 10.4991 15.6058 10.1634 16.02 10.1634C17.4268 10.1634 18.567 9.02314 18.567 7.61636C18.567 6.21019 17.4264 5.06936 16.02 5.06936C15.6058 5.06936 15.27 4.73357 15.27 4.31936C15.27 3.90514 15.6058 3.56936 16.02 3.56936ZM9.59131 3.99976C7.57189 3.99976 5.95731 5.6146 5.95731 7.63376C5.95731 9.65379 7.57176 11.2688 9.59131 11.2688C11.6111 11.2688 13.2263 9.65354 13.2263 7.63376C13.2263 5.61484 11.611 3.99976 9.59131 3.99976Z" fill="#EA736D"/>
</svg>
